<?xml version="1.0" standalone="no"?>
<!DOCTYPE svg PUBLIC "-//W3C//DTD SVG 20010904//EN"
 "http://www.w3.org/TR/2001/REC-SVG-20010904/DTD/svg10.dtd">
<svg version="1.0" xmlns="http://www.w3.org/2000/svg"
 width="446.000000pt" height="120.000000pt" viewBox="0 0 446.000000 120.000000"
 preserveAspectRatio="xMidYMid meet">
<metadata>
Created by potrace 1.16, written by Peter Selinger 2001-2019
</metadata>
<g transform="translate(0.000000,120.000000) scale(0.100000,-0.100000)"
fill="#000000" stroke="none">
<path d="M3707 1193 c-22 -21 4 -129 44 -185 l22 -30 -44 7 c-53 9 -53 8 -69
67 -13 51 -39 81 -83 97 -39 15 -47 14 -47 -6 0 -27 57 -121 81 -133 19 -11
18 -13 -23 -40 -24 -17 -49 -30 -55 -30 -7 0 -13 -4 -13 -10 0 -21 94 -10 139
15 23 14 44 25 45 25 1 0 2 -12 1 -27 0 -24 4 -28 30 -28 21 0 31 6 35 21 4
18 9 19 37 12 l33 -8 -82 -75 c-44 -41 -85 -75 -89 -75 -5 0 -9 -4 -9 -10 0
-19 55 -10 115 18 34 16 77 48 98 71 31 35 43 42 63 37 18 -5 24 -13 24 -36 0
-35 32 -50 58 -27 9 8 23 12 31 9 8 -3 -4 -13 -30 -27 -24 -12 -64 -33 -89
-46 l-45 -23 64 -8 c73 -8 146 4 174 29 17 16 20 14 60 -25 l42 -42 -30 0
c-32 1 -235 -61 -235 -71 0 -3 44 -9 98 -12 102 -7 152 1 183 29 10 9 23 13
30 8 9 -5 6 -10 -10 -16 -31 -11 -26 -62 7 -66 13 -2 29 1 36 7 10 9 15 8 19
-3 4 -10 -5 -15 -36 -19 -67 -8 -167 -31 -167 -39 0 -10 126 -48 159 -48 14 0
39 7 55 15 16 9 30 14 31 13 1 -2 7 -17 13 -34 l10 -32 -46 -6 c-117 -18 -131
-21 -124 -31 11 -17 84 -35 141 -35 53 0 57 -4 51 -54 -1 -11 3 -16 12 -14 14
5 15 25 5 76 -6 27 -4 32 13 32 26 0 27 45 1 62 -18 11 -18 12 0 64 20 56 23
82 13 108 -11 28 -22 18 -50 -44 l-27 -61 -23 38 c-20 34 -21 40 -8 65 8 15
14 55 14 91 0 63 -24 167 -39 167 -4 0 -18 -45 -32 -99 -23 -96 -42 -119 -32
-40 6 38 5 39 -26 39 l-31 0 0 88 c0 59 -5 94 -14 107 -13 18 -14 17 -30 -14
-10 -18 -20 -59 -24 -91 l-7 -59 -57 35 -58 36 0 54 c0 52 -24 134 -40 134
-12 0 -17 -20 -25 -93 -4 -37 -11 -65 -15 -62 -4 2 -5 15 -3 28 10 49 -61 64
-84 17 -15 -29 -20 -18 -26 58 -3 38 -13 65 -33 94 -31 44 -67 72 -77 61z"/>
<path d="M104 699 c-42 -12 -82 -54 -94 -98 -5 -20 -10 -100 -10 -178 0 -134
1 -143 19 -143 17 0 19 11 23 143 5 177 21 216 93 231 38 8 88 -22 122 -73 25
-37 31 -109 13 -155 -14 -38 -85 -111 -136 -141 -28 -17 -44 -33 -44 -45 0
-27 20 -25 88 8 31 16 90 42 130 57 62 24 75 27 96 16 15 -9 41 -11 72 -7 27
3 79 8 117 10 62 4 67 3 67 -15 0 -28 43 -22 48 6 5 25 29 53 54 61 13 4 25
-3 40 -21 20 -26 25 -27 78 -22 31 2 63 1 71 -3 8 -5 34 -4 58 1 34 8 45 6 58
-7 17 -17 15 -17 183 4 36 5 77 14 93 20 26 11 27 10 27 -19 0 -48 26 -47 76
2 l44 43 11 -32 c12 -36 28 -39 93 -21 29 8 45 8 61 -1 14 -8 42 -10 76 -6 30
3 65 7 79 7 54 2 119 21 125 36 10 28 -11 37 -56 24 -22 -7 -42 -11 -42 -9
-28 57 -34 63 -69 66 -27 2 -48 -4 -75 -22 -35 -24 -131 -62 -137 -55 -1 2
-10 16 -19 32 -20 31 -55 36 -92 11 -15 -10 -25 -12 -25 -5 0 17 -54 13 -111
-9 -57 -23 -79 -21 -79 8 0 50 -54 55 -143 13 -102 -48 -107 -48 -107 -7 0 29
-4 36 -20 36 -13 0 -22 -9 -26 -25 -3 -14 -7 -25 -8 -25 0 0 -15 -4 -33 -9
-28 -8 -35 -6 -66 24 l-35 34 24 47 c51 100 23 204 -55 204 -71 0 -101 -58
-101 -195 0 -90 -4 -99 -44 -114 -32 -13 -46 -7 -46 18 0 45 -71 56 -130 20
-43 -27 -140 -61 -140 -50 0 5 7 25 15 44 36 87 1 213 -72 261 -45 29 -96 38
-139 25z"/>
<path d="M3404 665 c-20 -49 -34 -161 -28 -221 l6 -50 -40 -12 c-53 -16 -52
-16 -50 20 4 41 -27 52 -41 15 -8 -19 -23 -28 -76 -42 -43 -12 -69 -15 -76 -8
-6 6 4 14 30 21 70 22 53 63 -20 47 l-31 -7 3 73 c4 69 3 74 -16 74 -18 0 -21
-10 -30 -83 l-10 -84 -69 -29 c-62 -26 -72 -28 -108 -17 l-39 11 31 13 c33 14
37 25 16 43 -18 15 -82 0 -117 -28 -13 -10 -36 -21 -51 -25 -23 -5 -28 -3 -28
12 0 27 -32 52 -66 52 -17 0 -51 -13 -77 -30 -26 -16 -84 -39 -130 -51 -148
-38 -242 -27 -273 33 -33 63 35 171 143 230 58 32 84 25 65 -17 -17 -37 -15
-55 7 -55 44 0 69 91 35 124 -20 21 -86 21 -127 0 -58 -29 -117 -85 -147 -137
-59 -103 -33 -207 58 -238 53 -18 175 -13 256 10 51 15 73 18 88 10 11 -6 43
-8 72 -5 28 3 74 7 102 9 28 2 56 7 62 11 12 7 72 -3 72 -13 0 -3 -18 -16 -40
-29 -32 -18 -40 -28 -40 -52 0 -25 5 -30 34 -36 64 -12 131 26 154 86 7 18 24
30 66 44 51 18 57 18 73 3 30 -26 67 -30 132 -12 48 14 67 15 88 6 22 -8 40
-8 81 3 45 12 57 12 80 0 32 -17 65 -17 112 0 28 10 39 10 63 -2 19 -9 42 -12
69 -8 34 6 43 3 54 -13 21 -29 65 -35 110 -15 22 9 66 24 99 34 47 13 61 22
63 38 3 18 -1 22 -25 21 -15 0 -37 -4 -48 -8 -15 -6 -24 -1 -40 23 -17 25 -29
32 -62 34 -34 3 -51 -3 -94 -32 -51 -36 -117 -50 -106 -23 54 121 61 146 62
208 0 81 -20 112 -69 107 -27 -3 -33 -9 -48 -53 -12 -34 -17 -83 -18 -151 0
-98 -1 -101 -25 -112 -35 -16 -79 -16 -72 1 49 110 60 148 61 202 1 77 -20
115 -65 115 -25 0 -32 -6 -45 -35z"/>
</g>
</svg>
